<svg xmlns="http://www.w3.org/2000/svg" width="1024" height="1024" viewBox="0 0 1024 1024"><path fill="#fff" d="M0 0h1024v1024H0z"/><path fill="#23263d" d="M316.806 86.126c-4.17.983-9.352 3.901-11.816 2.773.616-3.666 14.498-6.654 18.032-5.561 7.394 2.286 16.129 7.995 20.68 14.22 43.999 14.981 79.633 37.348 100.48 80.713 17.724 36.869 23.012 75.213 26.142 115.697.808 10.453-.201 27.048 1.366 36.014.483 2.764 8.598 20.88 10.271 24.815a1245 1245 0 0 1 14.235 35.745c14.89 38.995 26.328 82.455 34.428 123.323 1.55 7.822 4.828 22.528 5.698 30.019-4.91 4.991-20.049 14.911-26.224 19.038-35.28 23.582-73.904 40.778-115.288 50.391-10.422 2.421-22.843 5.108-33.603 5.282a3390 3390 0 0 0-10.508-70.42l-11.288-75.211c-5.497-35.546-12.21-76.07-13.198-111.798-2.099 1.983-2.675 2.527-4.282 4.898 1.713 29.767 6.104 58.668 10.574 88.098l9.952 65.622 11.14 73.712c1.473 9.579 2.757 19.546 4.527 29.043 28.3-.205 62.748-11.614 89.056-21.658.576 16.608.429 33.261.76 49.877.145 7.295-.297 14.743.647 21.973.149 1.144 2.554 3.095 3.42 3.842a3490 3490 0 0 0-1.031-77.315c3.316-1.448 6.831-2.849 9.852-4.808-.663 29.455-.352 60.005-1.796 89.374 12.255 10.851 20.483 15.918 13.57 33.465 30.022 29.707 41.958 77.094 53.185 116.602 5.471 19.25 10.825 40.867 14.428 60.526-1.64 1.865-3.233 3.643-4.77 5.598 8.814 13.489 15.148 28.133 17.918 44.056.804 4.625 2.788 11.649-2.27 14.228-12.203 6.222-25.336 9.19-38.227 13.438-2.43.806-9.536 6.887-12.107 8.816a86.7 86.7 0 0 1-12.286 7.55c-20.225 10.115-60.032 8.983-82.624 5.363-1.973-.316-4.519-1.809-5.721-3.484-.513-2.841 1.241-7.978 2.848-10.396 3.274-4.924 9.48-6.576 15.009-7.53a64.9 64.9 0 0 1 20.633-.269c2.256.328 9.252 2.23 10.357 1.935l.164-.757c-5.99-8.944-37.12-5.031-45.238.537-4.843 3.322-9.138 12.657-7.557 18.423.73.866.981 1.089 1.467 2.103-3.02.306-6.645-.115-9.72-.295-19.952-1.17-40.102-1.834-59.906-4.598-2.357-.329-5.574-1.176-7.531-2.469l-.429-.868c4.773-7.577 67.595-9.828 79.022-10.94 4.669-9.579 28.296-10.134 36.514-15.331 13.832-8.747 25.997-28.523 36.377-41.37-5.461-9.689-12.775-30.069-17.314-41.128a710 710 0 0 0-25.45-53.956 1881 1881 0 0 0-48.45-85.298c-10.23-16.895-26.456-40.17-33.612-57.142-4.014 11.356-9.077 24.604-11.624 36.227 5.578 20.458-3.032 16.05-6.143 34.16-.68 6.08 6.338 10.623 6.162 16.272-.206 6.624-6.073 14.303-6.161 20.769-.495 36.383-5.041 72.055-10.876 107.935-1.855 11.404-3.174 23.541-5.402 34.919a97 97 0 0 1-15.418 3.316c3.46 10.657 5.66 33.559 2.25 44.222-2.183 6.827-29.436 6.338-36.395 6.632q-12.64.582-25.267 1.38-8.193.448-16.377 1.065c-3.977.334-6.397.925-10.427.723 3.254-1.089 8.909-2.037 12.541-2.991 8.238-2.164 16.749-4.027 25.083-5.783 13.303-2.79 37.425 2.577 48.638-5.384 1.403-.997 1.61-7.192 1.719-9.258-14.032 5.575-32.077 3.973-46.938 6.144-18.11 2.646-35.32 10.621-53.538 12.317-11.776 1.095-24.094.006-35.886-.467-5.004-.241-9.264-.426-14.158-1.525 1.513-3.987 2.528-6.051 6.893-7.608 9.527-3.398 20.25-4.753 30.301-5.376 3.156-.196 9.772 4.138 11.015 1.828-1.333-3.379-7.665-5.211-11.066-6.192l-.717.303c-10.406 4.337-23.544 1.865-33.468 7.897-3.268 1.987-6.761 7.426-5.455 11.283 3.17 3.721 22.116 3.008 26.497 4.416l.32 1.111-.841.309c-8.152-.512-16.587-.059-24.658-1.532-6.499-1.186-6.902-4.918-4.737-10.395 6.259-15.942 25.278-10.826 37.879-14.486 13.184-3.829 27.543-16.06 38.531-24.156 6.186-4.557 9.878-8.618 17.038-11.71-1.24-1.776-2.56-3.484-3.867-5.21.22-11.131 2.118-28.022 2.863-39.962a1832 1832 0 0 0 3.753-87.601c.489-24.318.536-48.644.142-72.964-.309-21.029-1.191-41.914-.057-62.938.908-16.836 3.002-32.549 5.508-49.129-2.584-.296-4.771-.332-6.5-2.304-1.328-3.521 2.641-27.585 3.294-33.594a2388 2388 0 0 1 7.987-70.076l6.946-50.681c2.896-22.028 5.095-44.188 8.351-66.143 1.103-7.438 2.129-16.44 3.807-23.566l-.411-1.442c-21.775.764-36.925 3.6-56.863-7.547-2.573-1.438-8.27-4.03-10.404-5.855-3.095-2.647-3.751-9.814-3.697-13.839.168-12.053 2.702-24.139 6.96-35.366.881-2.324 5.089-9.26 5.19-10.527.912-11.491 5.01-15.123 12.748-22.98 1.898-1.927 4.22-6.362 5.444-8.835 4.942-11.064 11.719-22.512 15.672-33.943 4.511-13.046 9.517-25.032 15.628-37.406 1.538-3.115 2.204-6.95 3.824-10.079.834-1.721 1.678-4.171 3.559-4.862l.872.647c.032 3.022-2.819 9.882-3.414 13.319-.693 4.239.07 8.874-.552 13.099-.548 3.716-2.133 7.558-2.83 11.303-3.545 19.051-3.74 39.051-1.46 58.269.293 2.463.687 4.596.422 7.033l-.638.494c-4.662-1.295-3.107-7.565-11.142-6.872-2.786-2.696-3.366-5.359-7.737-5.697-4.867-.377-10.879 2.142-14.697 5.192-3.742 3.566-.246 5.646-7.275 6.973-1.578 1.223-3.987 4.96-3.783 6.631.861 7.063-3.49 12.243-5.227 18.969-1.137 4.402-.569 7.037-.977 11.302 2.438.372 20.095 3.609 21.147 2.756.239-.194.559-.674.743-.932 2.871.664 9.356 8.849 12.226 11.562 17.789 16.814 37.271 34.91 61.364 41.669 8.239 2.311 17.473-6.595 22.775-11.45 17.595-15.598 31.351-34.848 45.292-53.642l-.01-.864c-2.145-1.534-2.952-.39-5.161.925-2.334.017-21.351-9.656-26.121-9.107-1.031.119-9.205-1.522-9.859-2.098.574-1.37 1.259-2.087 2.644-2.692 11.619-5.084 48.361 12.405 51.036 10.071 1.247-1.087 34.148-69.635 37.501-77.213 3.976-8.986 7.064-18.204 10.752-27.277-1.054 15.794-5.368 27.859-11.844 42.089-10.235 22.488-22.012 44.239-33.509 66.079-.883 1.676-7.917.134-9.447-.112-7.923 13.321-17.846 25.819-28.166 37.357-5.746 6.423-11.975 12.569-17.624 19.112-.179 9.1.754 20.147 1.498 29.356 3.081 38.104 9.853 75.772 16.226 113.402a4734 4734 0 0 0 13.107 77.41c1.778 10.393 3.355 21.576 5.348 31.834a326.3 326.3 0 0 0 105.244-34.069c8.476-4.354 20.742-11.193 28.406-16.89a745.4 745.4 0 0 0-19.502-122.025c-6.873-28.383-11.345-46.091-23.874-72.736a402 402 0 0 0-15.838-29.675c-10.702-18.221-22.733-36.176-27.026-57.265 11.747 24.147 27.022 43.489 39.573 66.01 17.442 31.299 26.934 69.771 34.507 104.439 8.618 39.093 13.023 69.374 16.099 109.051 7.077-4.89 14.493-9.839 21.213-15.166a152 152 0 0 0-1.319-8.318c-8.998-47.961-19.905-98.111-36.724-143.932a568 568 0 0 0-13.531-33.702c-7.405-16.896-13.479-26.566-11.821-45.394.489-5.556-.982-13.571-1.037-19.291-5.952-46.059-13.785-97.837-42.305-135.862-9.423-12.563-17.236-16.331-33.229-14.627-8.94.953-12.733 5.346-19.841 9.8 10.787-14.178 19.452-16.501 36.854-15.271-17.783-14.537-36.824-25.247-58.854-32.106.906 7.41.817 11.653.483 19.083 7.417 6.384 15.23 11.976 22.667 18.189-9.607 13.679-16.606 26.104-21.996 41.983-8.725 25.707-8.582 44.947-26.109 67.232-9.06 2.811-12.889 3.186-17.696 12.069-3.317 6.131-10.595 14.208-7.79 22.113 2.239 5.646-3.452 6.66-1.873 12.229 1.287 3.71 6.637 4.986 9.951 5.757-1.175 1.587-3.665 5.435-5.602 5.35-8.26-.365-7.926-15.352-6.388-20.281-5.61-3.876-9.089-7.27-10.021-14.826-2.953-23.938.988-55.649 8.193-78.605 3.263-8.505 8.543-16.459 12.223-24.723 10.011-22.485 19.423-45.557 24.893-69.613.892-3.925 1.161-13.392-5.14-12.468-1.137 1.303-.849.573-.978 2.226.644 1.771 1.567 2.563 2.825 3.959-.634 8.929-3.79 19.451-6.633 28.054a396 396 0 0 1-17.838 44.993c-4.757 10.192-9.569 18.676-14.03 29.248a396 396 0 0 0-8.429-18.674c11.985-27.012 34.628-61.274 41.115-89.186"/><path fill="#fff" d="M274.082 362.922c1.615-.635 1.14-1.25 3.552-1.795.698.248 1.817.486 1.958 1.442 3.969 26.889-3.339 53.425-9.039 79.398a851 851 0 0 0-8.083 43.417c-3.24 20.651-5.835 40.488-7.551 61.306-.784 9.502-2.967 20.577-4.449 30.074-1.1 7.052-2.594 19.145-4.79 25.629l-.927.271c-1.741-2.622 1.017-15.587 1.527-19.367a1744 1744 0 0 0 4.26-34.865c1.258-11.658 2.185-23.429 3.638-35.053 6.265-50.127 13.3-100.228 19.389-150.369z"/><path fill="#d7d5d7" d="M268.443 361.388c1.795-.209 3.666-.675 5.196.12l.443 1.414-.515.088c-1.773-.67-2.827-.378-4.713-.18z"/><path fill="#fff" d="M288.094 366.132c.824.17 3.514.829 3.634 1.453 3.781 19.692-5.363 69.761-7.963 86.98 5.699.73 41.21 3.953 43.544 5.778.946 1.721.926.916.537 2.455-3.505.947-38.118-3.963-45.202-4.445-.166 5.218-2.717 17.818-3.757 23.623a1891 1891 0 0 1-10.084 52.675 1415 1415 0 0 0-8.353 49.531c-4.775 30.097-9.473 60.653-10.626 91.137-.674 17.808.408 36.084.933 53.926q.763 29.191.87 58.391a1105 1105 0 0 1-1.662 66.319c-1.391 22.819-3.68 45.17-5.281 67.875 17.678 6.001 41.747 5.225 59.768.28.361-8.923 3.515-27.579 4.96-36.687a1879 1879 0 0 0 7.505-50.586 855 855 0 0 0 4.107-36.756c1.039-10.943.535-21.354 6.513-30.763-3.548-6.65-8.729-15.995-5.726-23.497 2.136-5.335 6.546-9.251 7.045-15.721.312-4.043-1.609-8.006-1.463-11.714.373-9.446 3.011-19.183 5.134-28.387 2.735-11.084 5.239-22.717 8.356-33.657.68 3.059 1.859 6.768 2.75 9.837-5.151 10.892-10.902 39.076-12.938 51.975-.371 2.356 2.793 9.584 1.873 13.652-1.867 8.252-7.568 11.578-7.875 20.67-1.415 3.898 7.507 15.389 6.27 17.703-5.314 9.931-5.078 21.094-6.21 31.946a1500 1500 0 0 1-5.564 46.545c-3.536 26.505-8.277 52.637-11.348 79.245-20.037 6.007-48.487 7.828-67.601-1.597-.034-9.612 2.562-29.648 3.356-39.992a1314 1314 0 0 0 3.825-78.536c.309-23.48.111-46.965-.592-70.436-.97-36.131-2.383-58.319 1.662-94.508a1270 1270 0 0 1 7.563-54.679c1.817-11.938 3.57-25.214 5.901-36.914 7.685-38.568 15.743-76.973 21.246-115.944 3.295-23.338 7.09-43.54 4.893-67.177"/><path fill="#fff" d="M289.581 487.36c1.203-.071 1.192-.054 2.376.208 6.343 5.253 20.608 33.392 23.138 41.534 14.576 46.909 26.065 94.997 40.778 141.901 5.887 18.765 19.366 37.345 29.874 54.061a1513 1513 0 0 1 25.678 42.632c11.303 19.6 24.988 44.035 34.881 64.233a997 997 0 0 1 32.723 75.901c21.772 1.635 34.689-.196 49.421-16.979-3.085-10.188-5.023-19.536-7.649-29.785-3.301-12.881-6.852-25.738-10.36-38.626-9.558-35.117-20.577-74.732-45.75-102.099-8.122-8.829-22.835-18.008-32.913-25.208a287 287 0 0 1-26.997-22.156c-2.288-2.133-8.121-6.381-6.844-9.649 1.061-.118 1.739-.112 2.693.776a408 408 0 0 0 19.069 16.789c13.627 11.276 28.838 20.429 42.907 31.117.853.647 1.699.04 2.445-.376 5.3-8.549-4.947-16.468-10.521-21.733-8.18-6.761-52.009-45.461-51.767-53.221 1.219-.918.504-.608 2.437-.408 2.363 1.817 13.468 15.257 17.702 19.378a755 755 0 0 0 24.439 22.656c5.614 4.99 11.578 9.89 16.754 15.307 8.022 8.394 8.697 13.209 2.654 22.686 7.987 9.597 16.267 20.248 21.826 31.588 18.227 37.179 26.889 78.791 37.986 118.497 2.408 8.615 4.86 18.071 6.564 26.753-3.934 3.506-7.041 7.008-11.426 10.248-12.899 9.53-30.329 10.825-45.738 8.409-2.104-4.951-4.096-10.883-6.104-15.993a1117 1117 0 0 0-14.434-34.539c-14.389-32.16-30.666-61.772-48.107-92.311a1851 1851 0 0 0-31.48-52.28c-5.337-8.632-14.686-23.134-18.805-32.026-4.474-9.661-9.298-26.906-12.386-37.38-7.541-25.578-14.175-51.561-21.642-77.213-4.081-14.019-7.594-28.563-12.645-42.368-2.647-7.237-6.944-14.952-10.782-21.994-2.469-4.531-7.532-12.217-10.282-17.015z"/><path fill="#fff" d="M330.102 91.394a15.98 15.98 0 0 1 10.004 7.337c6.875 11.438-5.675 61.077-9.267 75.21 10.757 11.669 4.03 33.649-.316 46.808-1.648 4.989-6.607 21.345-12.894 21.118-1.185-.702-2.563-1.438-2.46-3.24.276-4.804 4.288-11.204 5.876-15.635 3.736-10.64 8.205-23.094 5.554-34.466-1.472-6.311-7.399-8.926-13.296-6.585-5.7 2.261-7.625 6.603-9.818 11.9-5.455 15.063-7.368 33.697-5.499 49.673.656 5.612 6.845 18.057-2.876 17.69-1.349-.051-3.947-1.026-4.453-2.337-4.55-11.787-3.791-25.966-2.565-38.333 2.082-14.719 5.202-36.588 17.145-46.217 5.077-4.094 10.933-4.461 16.923-3.726 5.352-12.908 13.409-55.203 12.085-70.494-.215-2.483-3.339-5.374-3.95-7.845z"/><path fill="#d7d5d7" d="m299.904 188.377.449.856-2.674 7.713c-3.552 10.101-6.295 37.526-4.422 48.223 1.19 6.793 1.968 8.465 3.687 14.631-10.808-12.816-3.186-56.514 2.96-71.423"/><path fill="#d7d5d7" d="m324.915 224.022.284.523c-1.232 6.679-2.998 9.629-5.935 15.674-.236-.216-.065-.022-.575-.91 2.606-5.844 4.092-9.143 6.226-15.287"/><path fill="#d7d5d7" d="M314.909 177.252c2.689-.314 5.034-.849 7.275.706l-1.384.063c-2.379.098-4.446.56-5.891-.769"/><path fill="#fff" d="M546.558 936.928c1.686.836 3.019 13.59 3.364 16.129-5.032 1.704-10.363 3.933-15.45 5.785-8.118 2.953-17.169 5.13-24.642 9.429-6.675 3.839-15.077 10.997-21.659 14.5-18.573 9.883-63.824 11.953-83.518 6.009-2.339-.741-2.914-.619-3.663-3.001l.597-.827c2.385-.655 5.895 1.076 8.668 1.393 22.166 2.532 54.71 2.152 74.647-8.808 10.455-5.748 16.924-12.859 26.084-18.773 11.985-7.738 23.804-13.904 35.572-21.836"/><path fill="#fff" d="M261.83 188.362c1.193 8.872-8.191 23.796-9.52 34.62-1.811 14.747-.126 27.178 1.723 41.716-6.756-4.029-8.489-4.958-16.573-5.202l-7.011 1.438c3.124-8.844 10.849-20.095 14.825-28.892 3.089-6.501 3.406-14.35 6.095-20.961 3.114-7.657 7.061-15.137 10.461-22.719"/><path fill="#fff" d="M531.672 905.312c1.114 1.119 2.246 2.58 2.157 4.209-3.251 5.518-17.299 20.94-22.595 24.775-4.127-.734-6.406-.935-9.85-3.576-9.732-7.459-12.554-11.143-25.338-8.184-6.042 10.71-20.365 28.118-28.274 38.205-3.176 4.051-4.952 4.335-9.506 4.456-1.286-1.041-1.32-.932-1.958-2.423.957-1.225 3.608-1.02 5.186-1.371 4.542-1.01 28.746-36.168 32.803-42.178 20.364-6.554 20.88 4.462 34.435 10.395l.68.294c6.551-4.264 17.534-17.937 22.26-24.602"/><path fill="#fff" d="m278.728 641.205 1.458.369c2.106 2.036 3.828 9.985 4.924 13.169 9.602 27.884 25.209 53.302 39.522 78.935.694 1.241-.012 2.391-.416 3.639-4.819-2.162-27.013-45.011-30.263-51.759a329 329 0 0 1-9.402-21.507c-1.907-4.875-6.068-15.541-6.611-21.048z"/><path fill="#fff" d="M271.714 688.335c1.153.665 8.266 15.881 10.067 18.981 8.404 14.462 17.634 27.705 27.576 41.111 4.044 5.454 11.524 13.313 14.607 18.316.107 1.389-.159 1.165-1.361 2.632-1.212-.872-2.21-1.89-3.223-2.979-9.395-10.103-50.532-64.675-49.37-76.157.086-.856 1.074-1.373 1.704-1.904"/><path fill="#fff" d="M236.929 930.32c6.101.346 14.947 9.578 19.261 13.827 9.924 9.775 27.652-11.321 31.928-8.146-.441 1.598-1.779 2.389-3.177 3.686-4.841 5.218-9.352 9.723-16.716 11.255-2.225.463-4.238.268-6.51.726l-.991.21c-12.659-6.772-13.669-12.095-26.826-18.885l-.008-.474z"/><path fill="#fff" d="M205.227 342.446c4.613.231 14.609 2.6 19.651 3.346 4.658.688 14.166 1.534 18.32 2.665l-.712.377c-7.368.24-33.666.824-39.246-3.475.074-1.449.663-1.524 1.987-2.913"/><path fill="#23263d" d="M554.389 962.52c5.773-.013 14.832.774 20.756 1.145a2813 2813 0 0 1 46.603 3.404 4350 4350 0 0 1 117.808 9.308 10152 10152 0 0 1 149.983 14.354c28.221 2.825 58.978 5.431 86.851 9.319-23.986 2.63-49.637 3.37-73.805 3.57-12.86.76-28.762.66-41.8.72q-34.011.255-68.021-.15a6074 6074 0 0 1-171.264-3.25 5183 5183 0 0 1-93.105-3.751c-12.456-.622-34.188-1.193-45.474-2.941 7.675-1.898 16.29-6.335 22.271-11.516 2.676-1.993 6.345-6.289 9.461-7.319 13.4-4.432 26.698-7.155 39.736-12.893"/><path fill="#23263d" d="M206.41 29.203c6.585-.56 22.676.685 28.912 2.139 19.489 4.542 35.138 32.022 45.21 47.782-7.843 9.314-13.455 15.384-24.002 21.845-4.763-9.152-14.912-19.858-27.393-12.03-7.011 4.398-1.57 16.629 3.013 22.337l.579.708c-.899 1.211-3.035 1.779-4.559 2.359-2.523-2.808-4.476-5.675-7.609-7.683-11.077-1.369-18.269 1.338-28.974 4.211-6.791-2.153-12.294-5.628-18.446-9.159 1.725-10.584 6.936-30.345 13.52-38.619 12.461-15.66 36.812-4.864 49.512 5.422 2.984 2.688 6.676 7.24 9.728 10.342-1.507-2.738-2.943-5.04-4.953-7.425a49.68 49.68 0 0 0-33.855-17.621c-24.196-1.982-29.568 18.87-33.259 37.709-.774 3.95-3.604 8.236-3.872 12.75-.289 4.847.765 9.783-.232 14.519-3.638 12.353-10.687 18.66-11.583 31.956-8.311-.218-14.053-1.659-20.95-6.719-15.332-11.249-.729-33.393 3.882-46.534 1.003-2.857 1.393-8.844 1.647-11.926.838-10.151 4.848-19.351 11.504-27.037 9.996-11.798 36.651-28.147 52.18-29.326"/><path fill="#fff" d="m160.046 105.844.504.179c-.154 1.044-6.751 11.215-7.745 13.432-2.222 4.951-4.009 11.107-4.896 16.294-.551 3.22-.041 9.522-1.06 10.64-6.906-14.034 3.539-30.705 13.197-40.545"/><path fill="#fff" d="M196.173 92.377c5.753-8.903 22.51-24.455 33.952-19.334l.223.434c-11.008.013-21.258 7.77-28.762 15.246a59 59 0 0 0-4.007 4.366z"/><path fill="#fff" d="M165.942 64.47c-.186 1.366-4.147 8.098-5.181 10.031-3.815 7.129-6.725 14.26-10.016 21.616-.785-7.565 9.471-26.293 15.197-31.646"/><path fill="#d7d5d7" d="m196.173 92.377 1.406.712c-2.109 2.706-3.557 4.602-5.983 7.035 1.373-2.594 2.757-5.474 4.577-7.747"/><path fill="#23263d" d="M432.351 360.353c5.525 3.473 26.078 77.738 30.679 89.761-16.997 18.966-51.366 31.103-76.385 35.612-1.552.131-1.57.083-3.12-.215-2.304-1.735-7.597-21.448-8.827-25.474a2716 2716 0 0 1-11.336-37.795c-2.483-8.522-5.189-17.275-6.784-25.992 20.239-7.202 40.968-10.567 59.62-23.012 5.82-3.884 10.055-8.587 15.607-12.507z"/><path fill="#fff" d="M431.02 367.923c3.437 2.806 24.182 71.96 26.855 80.612-19.032 15.227-46.424 25.625-70.262 30.312-1.056.177-.935.098-2.036-.012-2.167-2.283-22.475-72.73-24.615-79.971 4.809-1.539 11.667-2.898 16.708-4.272 23.237-6.333 35.107-10.902 53.35-26.669"/><path fill="#23263d" d="M427.627 382.367c1.457.309.837-.028 1.885 1.115-.323 3.284-5.582 5.849-8.22 7.531-13.751 8.765-28.598 14.049-44.643 16.783-.453-.152-1.312-.557-1.778-.762l-.305-1.022c.595-.766 1.13-1.133 2.078-1.363 8.89-2.148 15.336-3.356 23.986-6.94 10.781-4.467 17.489-8.972 26.997-15.342"/><path fill="#23263d" d="M234.443 90.1c13.835-.912 18.812 8.294 20.841 20.486 2.151 2.106 4.402 4.766 6.044 7.388 7.269 11.603 5.034 31.931 2.744 44.704-.725 4.039-5.905 16.377-9.964 18.245-1.362.627-1.821.274-3.031-.139-2.663-2.684-2.284-4.452-2.585-8.307-.799 2.032-2.671 7.335-4.199 7.731-5.881 1.524-3.063-4.681-10.674-.928-1.637.807-13.539-2.274-16.029-2.957 2.024-3.497 2.397-5.186 3.01-8.998-4.489 3.768-10.553 12.183-15.055 13.829-3.93-2.12-6.881-19.727-15.636-24.165.248-.969 11.251-10.838 12.897-12.385l2.558 4.646c2.809 5.685 5.282 8.914 10.031 12.961-5.026-9.822-10.397-14.111-7.91-25.164-5.449 4.861-16.613 13.796-20.899 19.151-7.433-4.092-15.623-10.343-22.589-15.42 3.511-7.211 7.72-16.136 10.702-23.474-.682-4.479-.99-7.388-1.208-11.91 5.514 4.051 15.064 10.069 22.178 7.975 7.062-2.079 14.429-4.545 21.972-3.343 4.117.53 6.029 5.726 9.247 6.972 2.14.829 11.388-2.287 13.389-3.231-.451-1.323-1.302-1.529-2.483-2.383-7.481-5.408-13.472-15.213-3.351-21.283"/><path fill="#fff" d="M241.501 101.682c5.587-.846 9.668 1.536 6.407 7.536-.701-1.654-.283-3.445-1.15-4.909-1.145-1.936-3.378-1.259-5.452-1.625z"/><path fill="#23263d" d="M327.212 294.609c14.397.2 24.081 4.218 37.094 9.957-10.463 14.84-39.614 50.747-56.462 56.644-14.174-2.876-26.083-10.542-37.579-18.914-8.555-6.679-15.896-14.008-23.816-21.397-4.842-4.518-9.402-9.221-14.951-12.855 3.5-5.116 6.522-9.516 11.637-12.997 18.669 5.382 36.109 7.511 53.488 17.241 3.398-2.048 6.758-5.214 9.795-7.499 4.424-3.327 15.462-9.005 20.794-10.18"/><path fill="#23263d" d="M283.591 81.438c5.054 3.695 13.918 6.682 19.647 9.477 2.42 1.18 3.28 1.559 6.027 1.101 1.048-.174.527-.168 1.666.455 1.489 6.493-30.666 65.273-35.145 73.346l-1.08 1.923c-1.898.856-5.366.252-7.658.062 5.111-15.289 11.957-18.759 4.518-35.626-2.053-4.652-3.243-9.442-6.357-14.311-2.209-3.454-6.425-9.143-7.181-12.835 2.025-2.252 6.729-4.679 9.592-7.022 6.344-5.191 10.725-10.403 15.971-16.57"/><path fill="#23263d" d="M271.789 170.402c1.242 1.634-.228 4.324 1.007 7.293 2.966 7.125 6.693 14.056 9.998 21.065-5.252 20.915-8.137 46.462-6.455 68.102.701 9.027 3.739 15.236 10.801 20.948-.319 3.119-.413 4.896-.238 8.046.127 2.277 2.034 6.096 1.598 7.168l-1.123-.273c-8.175-2.833-16.773-5.217-25.099-7.642-.348-21.168-1.717-42.452-.625-63.688.579-11.247 2.128-21.179 3.669-32.323 1.158-8.371 1.268-21.524 6.467-28.696"/><path fill="#23263d" d="M236.034 264.382c6.889.052 5.652 4.358 9.287 6.101 7.429 3.562 6.855 2.393 12.542 8.717.366 5.171.517 9.608.605 14.766-5.623-1.415-10.371-2.522-16.116-3.282-7.604 3.808-11.406 10.433-15.459 17.629-5.686-.626-9.687-.794-15.351-.921-.095-3.627.109-5.387.539-9.009.607-3.17 2.773-8.081 4.044-11.244 1.097 1.215 3.183 3.895 4.558 4.296l.739-.717c1.228-5.171-7.755-8.719-2.411-14.167 3.761-.657 6.387 4.156 10.476 5.334 2.547-2.015-2.272-5.713-3.776-7.792-.572-2.452 1.081-5.057 3.26-6.129 2.944.814 5.377 8.295 9.315 10.05 1.431-.407 1.323-.393 2.292-1.541-.515-4.148-8.603-8.34-4.544-12.091"/><path fill="#23263d" d="M422.509 184.316c1.481 3.713-1.649 16.989-2.939 21.099-8.29 26.425-32.073 50.852-56.347 63.469-.001.007 18.788-18.599 21.319-21.343 18.314-19.852 29.798-37.424 37.967-63.225"/><path fill="#23263d" d="M383.876 189.919c.184 5.554-9.446 20.261-12.934 24.754-6.699 8.628-34.81 33.457-44.871 34.554-.355-1.061-.329-1.14-.503-2.255 1.163-2.245 19.971-17.029 23.448-19.888 14.29-11.747 23.643-22.654 34.86-37.165"/><path fill="#23263d" d="M339.051 258.976c3.034 2.286 2.159 6.33-.465 8.11-7.976 5.414-24.449 5.443-33.47 4.779-2.712-1.668-3.398-4.603-1.013-6.418 6.906-5.259 22.061-3.067 30.21-3.428l.664-.034c1.474-.882 2.726-1.944 4.074-3.009"/><path fill="#23263d" d="M334.8 272.502c.802-.096.37-.161 1.225.464.165 2.678-.15 4.561-2.771 5.95-8.156 4.322-22.954 6.867-31.788 4.821-2.386-1.384-3.103-3.924-2.454-6.524.868-.923.838-1.134 2.309-1.171 11.718-.302 22.204.579 33.479-3.54"/><path fill="#23263d" d="M325.148 285.029c2.148-.288 3.589-.604 4.828 1.45-5.52 7.373-20.639 9.038-29.123 9.316-4.316-1.21-6.82-5.992-3.942-8.68 10.579 1.475 17.987 1.356 28.237-2.086"/><path fill="#23263d" d="M320.477 251.619c4.201-.506 14.881.382 16.892 4.705l-.615.974c-3.838 1.725-5.901 1.133-10.129.743-7.229-.4-12.273.085-19.348 1.387 3.684-5.732 6.828-6.461 13.2-7.809"/><path fill="#79797d" d="m173.095 987.857 4.6.132c5.686.398 11.324.325 17.012.723l-.152.394c-4.611.36-17.635.835-21.981.171l.841-.309z"/><path fill="#0d0d0e" d="m173.095 987.857 4.6.132.639.759c-1.554.525-3.241.289-4.919.22z"/><path fill="#3d3a3e" d="m270.198 136.419.428.418c1.465 4.392.658 8.535-.466 12.837l-.064.037-.433-.157c.373-4.23.413-8.862.535-13.135"/></svg>