<svg xmlns="http://www.w3.org/2000/svg" width="1024" height="1024" viewBox="0 0 1024 1024"><path fill="#fff" d="M0 0h1024v1024H0z"/><path fill="#212339" d="M470.832 145.847c.632 2.48 1.072 8.25 1.334 10.927 6.713 1.326 16.151 5.754 21.137 10.356 17.782 16.413 45.964 19.925 64.684 35.251 6.49 6.369 11.942 17.291 14.932 25.59 15.968 44.337 26.617 90.99 36.681 136.983 2.613 11.945 3.418 28.19 4.713 40.596a1498 1498 0 0 1 5.611 60.468c.589 9.122 2.048 25.897.847 35.302-.431 3.378-5.16 1.652-9.118 3.427-1.589 1.855-1.135 1.851-1.646 4.671a272 272 0 0 1-31.925-4.881c-.426-1.858-.574-3.376-1.704-4.88l-.808-.026c-1.869 3.021 1.018 7.245.869 8.425-.458 3.62-4.21 8.255-4.938 12.725-1.195 7.54 1.064 14.635 1.045 22.275.049 4.404-4.604 16.369-.018 19.431 8.929 5.962 12.928-9.909 13.436-15.794.242-2.804 2.802-10.006 1.996-12.053-5.18 3.371-3.869 25.55-11.743 26.89-1.67-.441-1.699-.733-2.83-2.043-1.64-5.788 2.001-12.602 1.642-17.426-1.181-15.899-2.951-19.062 5.131-33.761a855 855 0 0 0 26.428 3.704c.266 12.669 1.096 26.593-.238 39.124-.591 5.561-14.552 11.489-18.977 13.956-5.495 3.065-8.999 2.089-14.608.494a1465 1465 0 0 1 5.522 42.33c.981 8.561 2.214 17.781 2.336 26.345-8.475 4.307-20.085 6.466-29.438 8.174l4.842 177.606c.863 26.06 1.474 52.164 3.335 78.164.717 10.017.963 20.056 2.308 29.992-1.83 1.236-3.957 2.5-5.848 3.684 8.012 13.961 25.022 29.91 38.879 38.3 23.381 1.215 217.97.419 223.284 12.895l-.459.989c-6.574 4.32-59.668 7.995-70.649 8.553-9.825 1.03-22.439 1.286-32.447 1.676q-29.933 1.23-59.886 1.788a4392 4392 0 0 1-199.705.107 2457 2457 0 0 1-69.929-2.583c-9.246-.466-18.91-1.556-28.257-1.753-1.666-.036-6.8 1.987-8.821 2.208-13.817 1.508-36.399.785-49.447-4.77-1.256-.746-1.748-2.295-1.928-3.583-1.804-12.953 10.396-17.482 18.876-23.388 12.214-8.507 21.804-18.109 30.371-30.076-3.613-1.761-5.586-2.677-8.834-4.982.314-15.777 1.816-33.034 2.556-48.993A4424 4424 0 0 0 342.9 775.25c.832-43.879-1.228-88.68-2.136-132.703-10.857-2.146-22.068-4.249-32.318-8.516-.004-6.894 1.285-16.635 2.058-23.654l4.295-38.412 12.897-114.962c2.484-22.301 6.007-49.323 6.895-71.52-11.232 3.096-32.205 8.091-41.768.18-32.307-26.723-14.019-63.03-1.386-94.288 11.256-27.85 20.72-57.07 36.668-82.241 9.534-15.047 41.111-23.152 56.175-32.533 10.395-6.232 15.84-16.828 29.127-19.046.317-3.863.468-7.595.627-11.467 9.039 9.83 15.746 16.848 30.33 16.118 12.811-.641 18.587-7.692 26.468-16.359"/><path fill="#fff" d="M505.046 181.656c2.72.883 12.353 5.437 15.608 7.022 8.606 4.19 21.794 9.173 29.413 14.243-.58 12.409-3.281 24.892-4.217 37.612 4.498-12.057 5.825-22.897 7.377-35.45 24.483 25.227 41.076 122.094 50.92 158.916 3.54 13.24 14.098 130.102 11.051 134.633-5.938 3.162-33.424-1.295-41.342-2.623-2.819-11.514-3.831-29.818-7.101-41.965-2.566-9.533-14.195-65.823-11.75-70.769 3.034-1.821 7.875.286 11.196.617 4.967.493 21.299-3.502 23.952-7.344-2.071-.461-5.657.463-7.715 1.063-6.326 1.845-12.409 2.828-18.96 3.396 8.143-5.95 15.026-8.839 22.77-15.863-12.512 2.627-19.915 10.522-32.129 13.966 8.412-21.482 16.066-37.344 14.973-61.74-5.699 19.113-7.375 35.609-16.575 54.624-5.637-20.388-8.256-29.955-8.229-51.209.028-22.578 2.552-45.13 2.071-67.433-5.904 21.156-6.884 51.669-6.886 73.632.046 30.982 2.907 68.761 5.157 99.954-13.281.619-28.454 2.192-41.849 3.267a1852 1852 0 0 0 2.761 46.147c1.33 19.752-1.38 44.651 24.846 45.759 3.652 10.689 6.894 21.721 10.551 32.427 1.791 5.24 3.577 11.67 5.955 16.608 2.235-1.139 3.265-2.326 5.248-.674.265 1.582.068 1.276.753 2.633 4.468-.451 10.179-6.964 14.869-9.093 1.303 6.308 2.32 17.679 3.126 24.455a1497 1497 0 0 1 4.728 42.368c-27.009 9.361-76.505 13.983-104.73 10.433-1.117-11.211-1.516-24.783-2.023-36.16l-2.32-49.062a7510 7510 0 0 1-6.102-149.432l-1.561-47.213c-.171-4.932-.993-22.772-.245-26.576 2.525-12.831 11.11-31.213 16.279-43.422 6.662 3.397 19.182 3.272 26.433.957 6.825 2.853 15.991 2.511 23.338 1.442 5.637-.819 6.708-8.668-.723-8.266-4.097.222-6.177 2.616-8.693 5.412a49 49 0 0 1-3.206.15c-2.087.038-5.372.207-6.914-1.269.331-1.668 1.924-3.503 2.98-5.088 5.745-8.628 9.095-19.524 11.684-29.477.947-3.777 1.217-7.377 2.738-10.983 3.811-9.038 2.913-24.174-5.586-30.396-2.178-1.594-4.602-2.823-6.831-3.996-1.588-11.69-.553-14.19-5.09-26.233"/><path fill="#212339" d="M469.68 335.266a3.75 3.75 0 1 1 2.592 7.038 3.75 3.75 0 0 1-2.592-7.038"/><path fill="#212339" d="M472.47 393.687a3.649 3.649 0 1 1 .639 7.27 3.649 3.649 0 0 1-.639-7.27"/><path fill="#212339" d="M474.642 457.185a3.633 3.633 0 1 1 1.88 7.02 3.633 3.633 0 0 1-1.88-7.02"/><path fill="#212339" d="M478.01 519.661a3.61 3.61 0 1 1 1.076 7.14 3.61 3.61 0 0 1-1.076-7.14"/><path fill="#fff" d="M433.739 628.929q12.097-.07 24.19.127c6.394 40.396 14.154 82.291 18.705 122.765 5.203 46.278 6.203 93.486 13.705 139.737 1.955 12.048 3.512 27.152 4.308 39.376 4.695 2.215 9.378 3.3 14.369 4.57-1.353 13.181-2.255 21.71-1.875 35.021-13.004.617-26.495.463-39.54.466-23.553-.086-49.471.506-73.03 1.046 1.8-13.065-1.375-25.106-2.283-37.85 5.216-.917 8.229-1.621 13.1-3.621.958-12.713 2.662-26.374 3.851-39.198a1464 1464 0 0 0 3.452-47.495c1.306-21.22 2.896-43.358 3.219-64.569.66-43.247 8.936-85.803 14.375-128.615.896-7.055 2.091-14.786 3.454-21.76"/><path fill="#fff" d="m414.495 359.953.912.228c.755 1.814-8.116 254.449-10.216 280.457-20.504 4.308-70.331-3.463-90.886-10.119.469-7.584 1.839-18.58 2.832-26.108.135-5.289 2.385-21.028 3.069-26.992l6.512-58.154c11.441 2.041 28.81 6.216 37.906-2.92a23.3 23.3 0 0 0 5.766-9.629c2.091-7.009 2.689-20.909 3.219-28.76 1.048-15.497 2.184-31.794 2.129-47.284a2941 2941 0 0 0-38.863-3.811c1.173-8.279 2.141-20.252 2.729-28.615 20.375-14.77 51.676-28.589 74.891-38.293"/><path fill="#fff" d="M336.707 206.87c1.043 1.123 2.242 9.422 2.643 11.437 4.816 24.2 8.448 49.159 8.733 73.888-5.802-10.095-9.945-22.747-15.855-32.208 1.939 13.367 8.256 23.657 13.316 35.908.882 2.135 3.071 8.037 1.168 9.593-5.745-1.199-12.148-6.7-19.72-7.42-4.162-.395-11.791-1.782-15.607.917l-.071.693c1.876.733 5.699.619 7.91.775 8.534.603 15.546 3.364 22.649 7.977-15.034.988-27.429-2.721-41.98 7.627-1.792 1.274-3.282 2.167-3.655 4.294 1.283.925 3.397-.442 4.826-1.234 7.911-4.382 16.414-5.95 25.433-6.26-6.829 4.497-27.479 14.913-28.809 23.645l.539.341c2.726-1.319 7.542-5.066 10.047-7.022 20.692-16.149 45.429-18.715 70.088-26.58 13.12-4.109 29.724-9.785 42.881-12.787 7.685 12.654 11.689 37.802 11.749 52.98-6.005 3.759-25.174 10.893-32.805 13.637-20.473 7.082-41.145 15.888-62.012 21.596-12.635 3.456-35.074 10.237-45.297-.386-12.506-12.996-15.659-30.629-10.369-47.616 4.316-13.858 9.862-26.886 15.058-40.417 8.83-23.031 17.606-46.079 28.642-68.141 2.753-5.505 6.291-10.745 10.498-15.237"/><path fill="#fff" d="m380.761 183.981.455.084c-.032-.251-6.612 16.049-7.232 18.209-3.714 12.928-5.043 25.258-5.9 38.563-6.995 2.023-12.647 7.371-11.105 15.154a13.9 13.9 0 0 0 6.41 9.211c16.526 10.055 29.974-15.442 10.659-24.313.726-10.548 1.423-17.271 3.141-27.764 5.552 2.282 10.757 4.44 16.207 6.97l-14.024 16.384c1.85 6.008 6.535 16.031 9.136 21.937 4.859 10.532 10.08 21.63 13.738 32.612-16.443 4.642-31.767 10.16-48.609 14.398-2.188-18.776-3.104-36.712-5.872-55.677-2.152-14.745-6.963-31.37-8.651-45.203 7.639-5.056 32.114-16.045 41.647-20.565"/><path fill="#fff" d="M336.654 430.433c9.252.318 25.59 2.695 35.661 3.624q-.493 11.361-1.136 22.715c-.882 14.445-1.884 29.782-3.896 44.154-.747 5.335-3.354 10.031-7.412 13.616-8.652 5.627-22.267 2.488-32.513 1.258.164-3.32.629-7.023 1.027-10.339 2.989-24.924 4.952-50.164 8.269-75.028"/><path fill="#fff" d="M477.927 163.238c14.477 5.17 25.693 29.438 24.617 44.109-8.238 2.263-9.26 3.042-15.31 8.971-2.577.186-5.014-.256-6.114 2.274.442 1.921 1.873 3.16 3.222 4.652-2.18 11.129 1.089 21.698 2.851 32.667-7.835 15.914-14.813 29.498-21.417 45.965-3.078 7.794-5.019 15.244-7.185 23.31-1.295-19.149 3.505-48.277 7.281-67.271a1452 1452 0 0 1 6.804-32.091c3.639-16.144 7.916-33.749 7.859-50.479-.016-4.651-1.082-7.801-2.608-12.107"/><path fill="#fff" d="M407.409 163.908c1.083 1.134.069 2.294-.36 3.756-6.107 20.815-.626 46.297 2.482 67.191 2.691 18.085 4.963 34.384 6.625 52.106l-10.359 2.958a816 816 0 0 0-8.255-20.617c-4.464-9.85-10.19-21.711-13.721-31.705 5.083-6.645 11.091-12.502 16.158-19.648-6.773-2.885-14.058-5.275-20.537-8.549 4.885-17.556 12.193-35.084 27.967-45.492"/><path fill="#fff" d="M541.088 430.709c1.559-.219 2.782-.43 3.963.382 1.265 5.324 1.347 13.429 2.414 19.518l.135.75c-9.036 5.919-19.769 11.305-28.725 17.506-1.857 1.286-.645 3.62-.847 6.666-.284.341-1.927 2.367-1.92 2.549.266 7.112 12.357 34.536 12.372 39.408l-.715.409c-8.444-1.339-13.926-6.337-15.573-14.666-1.696-8.583-2.091-17.851-2.765-26.584a2784 2784 0 0 1-3.209-43.092c11.249-.521 23.594-1.843 34.87-2.846"/><path fill="#fff" d="M505 215.077c26.101-4.297 7.406 64.933-3.485 69.489-1.298-.605-1.837-1.916-2.623-3.204-3.465-7.372-6.108-15.942-7.95-23.859 1.906-4.997 7.215-14.375 9.888-20.076-6.851-12.015-19.967-15.312 4.17-22.35"/><path fill="#fff" d="M510.317 965.547c4.21 1.202 11.965 4.176 15.41 6.537 8.656 6.098 15.81 13.003 26.652 14.744 16.048 2.575 31.383-.95 47.146-2.864.782-.095.895.409 1.317.995l-.429 1.732c-6.252 1.804-16.123 3.371-22.708 4.148-11.821 1.395-26.846 1.946-37.659-3.9-4.26-2.41-8.522-5.667-12.952-7.715-9.291-4.293-16.097-1.59-16.777-13.677"/><path fill="#fff" d="m390.097 964.959.738.365c2.272 10.079-11.338 9.921-17.74 13.347-4.765 2.55-11.094 7.195-15.808 8.932-16.417 6.048-38.752 2.456-55.685-1.018-1.915-1.187-1.42-.395-1.968-2.152 1.261-2.239 13.271.476 16.131.847 10.251 1.332 19.71 2.544 30.083 1.289 11.384-1.378 18.438-8.008 27.611-14.081 4.845-3.17 11.141-5.44 16.638-7.529"/><path fill="#fff" d="m460.641 260.4.776.246.378.927c-.877 2.286-6.625 5.14-9.278 6.805-6.988 4.386-12.858 16.977-17.494 20.532 5.269 9.962 7.757 19.018 8.691 30.264 3.338-.245 7.383-1.469 10.276.271l-.327.646c-3.554 1.784-5.563 1.573-9.439 1.985-.183 6.433.459 7.742-5.49 10.998-1.395.444-.695.39-2.181.097l-.385-.92c.976-2.416 4.908-2.565 5.125-6.655.591-11.154-3.055-27.129-9.399-36.223-2.056.602-4.976 1.755-6.905.446 2.015-2.505 5.927-2.746 9.044-3.255 1.638-1.952 4.654-6.535 6.214-8.776 6.262-8.997 10.959-12.358 20.394-17.388"/><path fill="#fff" d="M411.965 161.185c2.476.911 3.499 6.009 5.871 9.177a92.5 92.5 0 0 0 11.394 12.524c3.322 3.077 8.878 7.553 11.236 11.046-5.764 7.408-13.055 18.318-18.653 24.785-4.236-4.291-8.359-10.841-11.445-15.978-1.002-2.357-1.391-2.201-1.041-4.3l-.302.865-.011-1.007c2.179.847 10.152 12.691 12.663 15.688 5.577-7.366 9.826-13.277 15.79-20.494-7.128-5.226-28.175-22.732-25.502-32.306"/><path fill="#fff" d="M472.637 160.938c7.951 5.697-20.944 29.269-25.764 32.888 4.845 5.113 11.034 14.566 15.561 20.573 2.962-3.433 9.549-13.58 11.612-15.103.598 1.24.18 1.531-.23 3.265-2.431 5.486-7.393 12.514-11.747 16.643-5.218-6.65-12.601-17.844-18.009-25.326 2.309-3.201 5.788-5.998 8.765-8.647 8.626-7.678 15.121-13.671 19.812-24.293"/><path fill="#fff" d="M547.685 387.921c2.174 2.22 8.53 51.583 11.222 57.012.223.45-1.282 1.248-1.704 1.544l-5.669 2.573c-.893-19.371-3.805-41.907-3.849-61.129"/><path fill="#fff" d="M488.065 263.278c.967 1.598 3.448 9.629 4.426 12.185 2 5.226 3.527 8.002 6.232 12.826-3.599.301-6.168.25-9.792.169-2.638-.999-2.849-4.042-10.052-6.623a210 210 0 0 1 9.186-18.557"/><path fill="#fff" d="M490.035 230.73c1.741 1.201 4.903 5.291 6.373 7.077-1.117 2.65-2.757 5.804-4.051 8.442-.778 1.414-1.747 2.928-2.593 4.318l-.087-.768c-.733-6.914.182-12.163.358-19.069"/><path fill="#212339" d="M448.299 18.682c3.175-.35 8.385.357 11.274 1.56 9.127 3.802 11.586 8.049 15.145 16.244 22.625 5.318 20.488 29.213 15.076 46.525-1.047 3.35-3.328 6.231-3.982 9.737l.56.633c1.658.102 2.709-.003 4.12.86 4.966 6.512-.323 22.474-6.458 27.044-1.046.778-5.508 2.691-5.692 3.016-1.717 3.04-1.977 7.342-3.259 10.636-2.278 5.149-7.819 10.947-11.712 14.802-9.156 9.068-12.216 9.453-24.484 9.374-9.231-.782-14.283-5.994-20.455-12.339-3.62-3.72-6.829-7.55-9.297-12.287-1.044-2.004-1.637-8.275-3.378-10.376-4.177-1.794-7.327-3.288-9.617-7.575-2.932-5.196-5.397-13.954-3.751-19.872.73-2.624 2.801-2.775 5.33-3.959-.252-2.58-2.372-6.733-3.046-9.537-2.425-10.093-4.256-23.305-1.204-33.437 2.339-7.764 7.476-11.46 14.045-15.006.833-2.787 2.205-8.615 5.381-8.788 11.561-.629 24.438-6.227 35.404-7.255"/><path fill="#fff" d="M432.122 34.706c13.392-1.035 25.632 7.59 23.534 22.051 3.418-.813 7.208-2.349 10.544-3.596 14.131 7.05 12.439 9.72 12.466 23.154.008 3.748 5.006 11.478 3.858 16.386-.618 2.64-.212 10.169-2.297 12.141-1.08-1.053-.898-5.178-.528-6.42 2.283-7.674-3.221-15.456-3.638-21.416-.838-11.956 3.047-14.246-9.655-20.375-1.965.264-8.803 2.284-11.016 2.893-11.068 3.045-18.321-.336-28.672-3.869-20.319-2.236-18.534 8.448-19.206 23.215-.179 3.944-3.777 9.622-3.192 14.656.282 2.422 1.324 10.032.627 11.618l-.818.177c-1.248-1.392-1.316-2.619-1.648-4.294-2.248-11.348.328-15.074 2.896-25.286.51-6.145-1.698-12.54 2.74-17.907 9.109-11.017 23.424-2.684 34.416-.432 4.113.843 7.067.431 11.037-.12-.23-17.304-10.506-19.946-24.865-21.91 1.306-.606 1.94-.513 3.417-.666"/><path fill="#fff" d="M424.157 128.451a1648 1648 0 0 1 36.129.088c-1.545 3.266-2.612 4.493-5.049 6.97-11.617 8.8-24.715 6.252-31.08-7.058"/><path fill="#fff" d="M450.521 29.057q1.096.075 2.182.248c10.036 1.691 15.033 11.418 13.072 20.981l-.798.093c-3.897-3.76 4.109-12.025-14.456-21.322"/><path fill="#fff" d="M478.266 47.47c9.389-.11 10.075 13.897 9.46 20.6l-.525-.338-.524-5.224c-.725-7.194-2.977-10.604-8.411-15.037"/><path fill="#212339" d="M611.067 511.161c2.955 1.589 6.587 16.681 7.697 20.778-1.123 1.35-2.446 2.521-3.728 3.726-1.719 1.139-3.746 2.306-5.528 3.391-.126-7.962-.514-17.669.158-25.626.063-.747.923-1.712 1.401-2.269"/></svg>