<svg xmlns="http://www.w3.org/2000/svg" width="512" height="512" viewBox="0 0 512 512"><path fill="#fff" d="M0 0h512v512H0z"/><path d="M253.359 106.613c14.48-.32 27.841 3.571 34.778 17.317 3.193.129 6.358.67 9.413 1.61 25.744 8.174 19.235 40.667 12.953 60.222l.243.209c4.057 3.532 6.802 7.614 7.08 13.184.452 9.028-4.881 17.446-12.258 22.341-2.133 1.416-6.56 3.065-7.964 4.832-2.32 2.922-4.271 6.661-6.495 9.808-2.881 4.075-5.65 6.62-8.862 10.236l.041 7.893c3.136 1.685 8.628 5.372 11.363 6.458 4.276 1.698 10.118 3.171 14.621 4.73 16.055 5.559 26.287 9.703 39.959 19.691 1.735-8.452 6.603-16.702 6.41-25.302-.192-8.61 1.479-18.041 12.676-12.572.353-3.702.449-8.398.632-12.183-4.748-.258-9.622-.95-14.514-1.471-2.762-.564-9.994-.089-11.978-2.367-3.113-3.575-3.389-14.061-.198-17.485a4.4 4.4 0 0 1 1.772-1.143c.885-.302 3.02-.667 4.084-.919l10.183-2.454 31.967-7.635c3.317-.782 6.86-1.637 10.228-2.285 4.122-.792 5.89-4.548 9.818-4.585 1.898-.018 4.368 1.608 5.55 3.032 6.093 7.586 6.522 18.719 6.166 28.041-.23 6.03-2.945 16.676-10.951 15.57-1.829-.252-3.546-1.866-5.52-2.269-2.689-.548-5.356-.718-8.09-.921.154 4.224.49 8.758.708 13.021 5.233 1.213 12.578 1.44 15.972 6.251 3.221 4.569 1.06 7.981 1.196 12.534.047 1.588 2.381 5.476 2.599 7.618.28 2.76-1.197 4.835-1.119 7.361.055 1.741 1.082 4.094 1.12 6.052.046 2.373-1.634 4.92-1.896 6.96-.351 2.74.27 4.81-.601 7.716-2.163 7.219-8.719 12.008-11.84 18.404-1.442 2.956-2.209 9.239-2.697 12.626 1.301.059 2.613.1 3.909.224 1.37.131 3.233.535 4.04 1.788 2.261 3.509-3.221 42.91-4.356 49.382-.588 3.355-1.311 6.742-2.36 9.983-2.43 7.507-8.015 14.386-15.105 17.953-11.631 5.853-27.194 2.98-37.887-3.645-1.575-.976-5.954-4.828-7.2-5.13-.083-.02-.169-.017-.254-.027a482.6 482.6 0 0 1-112.426 7.14c-4.387-.243-8.787-.21-13.162-.633-23.136-2.245-45.963-4.843-68.322-11.475-3.807-1.13-10.566-2.734-12.973-5.957-2.971-3.979-.196-48.561.777-56.086-14.367-1.253-14.15-1.66-14.694-15.851-11.187-2.196-19.732-6.173-28.325-13.795-12.11-10.741-15.525-25.785-16.126-41.478-.614-16.019 2.928-40.006 13.96-52.356 7.159-8.016 26.258-10.517 36.834-10.851.394-.843.481-.959 1.03-1.725 1.762-.902 15.25-.852 17.851-.233.905.215 1.183 1.155 1.539 1.993 10.051.141 29.781 2.967 36.64 10.07 10.959 11.346 14.219 34.009 14.325 49.05 6.34-2.107 12.662-3.157 18.165-6.958 1.84-1.271 4.242-2.495 6.231-3.583.196-2.4.226-5.573.311-8.036-3.168-3.307-5.919-6.064-8.606-9.858-2.272-3.212-4.259-7.236-6.683-10.17-1.89-1.784-4.974-2.769-7.156-4.07-7.788-4.645-13.081-12.909-13.023-22.095.036-5.68 1.864-9.522 5.84-13.451-5.879-18.51-8.932-39.464 5.51-54.911 14.357-15.356 34.303-24.15 55.147-25.336"/><path fill="#fff" d="M293.553 267.712c1.207.135 2.243.37 3.426.618 4.313 9.81 9.374 20.088 13.339 29.91-2.744 2.183-7.094 4.63-9.439 6.736-3.109 2.793-13.605 6.815-10.452 11.524 1.26 1.882 3.047 4.262 4.395 6.035a891 891 0 0 0 9.173 11.982c-6.212 8.714-40.635 49.144-41.944 54.369-.137.547-.078.617.212 1.057.749.131 1.98-.284 2.532-.775 14.166-12.598 25.763-27.958 37.962-42.416 2.245-2.868 4.909-5.747 7.015-8.702 1.653-2.32 2.236-3.685.514-6.007-1.473-1.988-3.034-3.886-4.526-5.811a300 300 0 0 1-8.38-11.206c2.791-2.177 19.733-12.824 20.236-14.736.574-2.185-10.889-25.035-12.536-29.035 14.409 4.973 31.364 10.811 42.137 22.135.798 3.542.883 6.067 2.186 9.669 1.379 3.812 4.902 8.711 5.24 12.464.418 4.65-.54 10.238-.75 15.109-2.06-.552-4.527-1.487-6.66-1.308-.625.052-1.333.275-1.737.774-2.23 2.751-4.912 37.25-4.305 41.813.119.899.304 1.697 1.034 2.268l.587-.16c1.498-1.406 1.626-2.094 2.207-4.016 2.378-9.021 4.548-23.865 5.356-33.268 3.733.684 7.629 1.713 11.495 2.438a295 295 0 0 0 24.525 3.557c4.956.546 10.014.297 15.42.87a1041 1041 0 0 1-3.33 32.183c-1.206 9.505-1.942 19.658-7.78 27.606-10.255 14.028-31.857 9.616-43.786.288-4.666-3.649-11.75-11.905-14.353-17.606-.906-1.985-.218-8.78-.594-11.14-.62-3.878-.619-21.279-3.224-23.333-.75-.089-.418-.178-1.025.287-1.895 3.74-1.533 43.202-1.411 50.532a523.5 523.5 0 0 1-70.507 5.567c-.186-4.76-.018-10.177-.1-15.011-.065-3.813-.326-9.658.158-13.229.35-2.585 2.402-8.132 3.332-10.797q2.427-6.891 4.762-13.812c6.99-20.642 14.409-41.03 21.318-61.745l5.053-15.245c1.151-3.488 2.394-6.853 3.225-10.433M209.696 268.023c.7-.047.749-.134 1.315.232.708 1.182 2.355 6.884 2.931 8.68a1254 1254 0 0 0 6.203 18.955 4185 4185 0 0 1 20.367 59.292l5.214 15.044c3.483 9.978 3.323 9.988 3.293 20.435l.028 17.285a512 512 0 0 1-44.218-2.244c-7.123-.683-15.893-2.34-22.696-2.761-.28-13.733.218-27.488-.907-41.207-.214-2.612.228-7.386-1.423-9.421-.812-.29-.422-.295-1.211-.016-2.65 4.577-3.012 41.999-3.28 49.481-1.666-.43-3.508-.71-5.208-.995-10.404-1.749-20.255-4.644-30.062-8.437-1.273-15.847-.44-32.538 1.053-48.346 1.389-14.716 3.289-28.515 10.17-41.815 5.97-11.29 16.9-18.238 28.256-23.213 6.508-2.851 13.143-5.478 19.983-7.416-2.162 5.078-12.37 24.876-12.318 28.65.694 1.899 17.32 12.766 20.104 14.892-1.929 2.849-14.089 17.449-14.003 19.392.046 1.053.763 2.23 1.308 3.092 2.688 4.244 7.653 9.682 10.978 13.714 7.126 8.642 14.385 17.265 21.956 25.522 3.429 3.74 6.883 7.665 10.72 10.987 1.014.878 2.521 2.293 3.91 2.188l.147-.495c-.59-3.316-4.359-7.719-6.388-10.493-11.106-15.189-24.102-29.337-35.167-44.518 2.499-3.575 14.288-17.145 14.106-20.222-.053-.887-.523-1.6-1.131-2.219-1.51-1.535-3.74-2.759-5.513-3.995-4.629-3.224-9.499-6.328-13.863-9.9a1202 1202 0 0 1 6.877-15.574c1.866-4.199 3.718-8.481 5.867-12.542.922-1.743.832-1.5 2.602-2.013M275.23 157.539q.107.01.212.022c3.512.464 7.226 2.008 10.175 3.946 15.998 10.514 10.61 32.71 14.354 36.76.404.437.865.754 1.488.693 3.029-.299 3.586-4.405 5.473-6.061.574-.505.698-.454 1.4-.362 1.108.818 2.193 2.595 2.476 3.903 2.028 8.733-4.077 18.102-12.167 21.262-5.988 2.003-7.94 6.707-11.067 11.8-11.975 19.508-33.59 28.455-54.325 16.743a48.64 48.64 0 0 1-16.526-16.746c-1.083-1.797-3.605-6.602-4.979-7.844-3.873-3.464-8.735-3.983-12.51-7.876-5.585-5.758-9.083-15.056-2.569-21.534 1.624 2.103 5.32 8.908 8.236 7.585 2.01-.913 2.004-8.125 2.441-10.187.87-4.093 2.395-7.711 4.03-11.459 19.272 3.01 39.915-2.58 55.827-13.739 2.695-1.89 5.572-4.659 8.031-6.906"/><path fill="#fcc906" d="M194.727 167.18c-.486-2.012-.504-6.115-.483-8.23.101-10.702 4.173-18.587 12.07-25.895 13.548-12.538 32.419-20.179 50.943-19.938 8.5.218 17.272 2.862 22.623 9.862 1.671 2.185 3.002 5.033 4.876 6.927 1.575.486 3.641.665 5.302.74 4.247.19 8.203 1.547 11.598 4.19a18.87 18.87 0 0 1 7.18 12.5c2.685 9.373-1.108 27.711-4.522 37.151-1.068-5.336-1.915-10.898-4.34-15.808-4.207-8.52-11.384-14.314-20.552-16.715 1.035-1.997 3.532-6.869.924-8.571-2.476-.001-6.594 5.794-8.421 7.797-14.49 15.873-36.989 22.768-58.072 20.739-4.123-.398-5.981-1.13-8.003 2.939-2.161 4.349-3.33 7.923-4.214 12.643-.97-.809-1.634-1.376-2.713-2.064l-1.273-4.62c-1.228-3.573-2.646-10.021-2.923-13.648"/><path fill="#fff" d="M194.727 167.18c-.486-2.012-.504-6.115-.483-8.23.101-10.702 4.173-18.587 12.07-25.895 13.548-12.538 32.419-20.179 50.943-19.938 8.5.218 17.272 2.862 22.623 9.862 1.671 2.185 3.002 5.033 4.876 6.927 1.575.486 3.641.665 5.302.74 4.247.19 8.203 1.547 11.598 4.19a18.87 18.87 0 0 1 7.18 12.5c-.758-.636-1.24-1.879-1.763-2.814-2.392-4.277-5.581-7.456-10.283-9.122-4.786-1.949-8.792-1.055-13.76-1.438-.33-.025-.964-.517-1.237-.742-.403-.85-1.076-1.684-1.639-2.451-3.237-5.325-7.154-9.365-12.983-11.832-2.555-1.047-5.676-2.304-8.422-2.664-8.289-1.086-21.206 1.701-28.676 5.381a91 91 0 0 0-11.129 5.856c-14.291 9.337-23.117 19.496-22.685 37.169.727 4.236 1.169 10.52 1.785 14.94.057.413-.18.852-.394 1.208-1.228-3.573-2.646-10.021-2.923-13.648"/><path fill="#dbd8c3" d="M196.259 164.679c.727 4.236 1.169 10.52 1.785 14.94.057.413-.18.852-.394 1.208-1.228-3.573-2.646-10.021-2.923-13.648.706.797 1.462 6.427 1.762 8.05.387-4.416-.554-6.345-.23-10.55"/><path fill="#e8c031" d="M218.945 127.51a91 91 0 0 1 11.129-5.856c-1.97 3.25-6.253 4.479-9.668 5.888-.349.144-1.085.04-1.462-.032"/><path fill="#b18c07" d="M281.793 133.22c.273.225.907.716 1.238.742 4.967.383 8.973-.511 13.759 1.438-.43.064-14.11-.867-14.444-.951-.624-.596-.389-.231-.553-1.23"/><path fill="#fff" d="M145.794 222.058c3.21.028 6.415.255 9.597.68 4.345.551 17.546 2.308 19.499 5.86 7.015 12.758 5.782 29.685 3.629 43.503-11.048 5.457-15.598 7.428-25.1 15.834q.054-4.546.273-9.086c1.48-1.363 2.948-2.734 4.262-4.262 8.648-10.053 9.463-24.31 1.446-35.054a28.82 28.82 0 0 0-19.215-11.445c-8.032-1.137-15.158 1.133-21.523 5.972-.88.7-2.114 1.89-2.885 2.711a29.22 29.22 0 0 0-7.791 21c.379 9.076 4.816 15.087 11.119 20.938q-.01 10.224.175 20.448a28 28 0 0 1-12.433-4.878c-8.074-5.673-11.206-14.523-12.756-23.883-1.968-11.881-1.996-32.943 5.023-42.916 5.57-2.823 21.377-4.968 27.826-5.225 4.584 5.417 14.399 5.31 18.854-.197M362.098 251c2.901.26 3.386 1.485 4.844 3.797.43 6.664-.062 16.648-.336 23.328q-.542 12.837-.772 25.685c-.11 5.236-1.205 16.382 1.865 20.544 3.543 4.807 13.165 4.143 18.43 3.548 10.527-1.189 10.97-7.844 11.117-16.443 1.576-.416 3.643-1.093 3.833-2.954-1.89-3.183-14.711 1.257-17.96-.829-4.359-3.176 1.872-4.899 3.746-5.946 3.02-1.687 13.061-1.805 14.486-3.846-.041-1.674-1.675-1.78-3.164-2.488-5.512-2.619-16.951 4.78-20.505.673-2.232-2.58 3.127-5.533 5.222-6.206 2.274-.73 6.416-2.135 9.031-2.435 2.337-.55 10.42-.212 10.774-2.945-.189-.46-.442-.879-.923-1.097-6.535-2.961-13.233-.846-19.71 1.028-1.06.214-2.744.8-3.67.047-4.784-3.889 3.293-7.35 6.284-8.62 2.917-1.238 5.89-2.192 9.128-2.775 1.701-.226 9.877-.462 9.194-3.292-3.22-3.726-14.253-3.943-19.054-4.989-5.594-1.219-5.254-6.39-.667-7.403 6.988-1.543 17.097-1.036 23.724 1.551 4.61 1.8 1.127 9.437 1.9 12.863 1.524 4.242 3.885 5.084 1.861 10.214-1.08 2.737.157 6.069.982 8.881-.607 2.06-2.14 4.788-2.39 6.646-.389 2.87.91 4.784-.416 7.835-3.152 7.258-9.736 12.794-12.918 19.716-1.108 2.41-2.082 8.245-2.611 11.079-9.971.088-23.404-2.24-33.199-3.955.01-5.407 1.594-13.513.226-18.736-1.765-6.745-5.5-10.192-6.41-17.783-1.409-11.753 3.786-19.121 5.813-30.141.705-3.838-.192-8.042.402-11.884.22-1.417.709-1.897 1.843-2.668"/><path fill="#fff" d="M134.497 234.124c12.211-1.06 22.972 7.974 24.042 20.184 1.072 12.21-7.953 22.978-20.162 24.06-12.224 1.082-23.009-7.955-24.081-20.18s7.975-23.002 20.201-24.064"/><path fill="#fcc906" d="M134.522 237.36c10.405-1.094 19.72 6.47 20.786 16.878 1.065 10.409-6.526 19.702-16.937 20.738-10.37 1.031-19.619-6.522-20.68-16.889s6.467-19.636 16.83-20.726"/><path fill="#fff" d="M132.34 244.456c1.186-1.095 3.536-.751 5.165-.701 11.584.353 14.956 15.868 6.476 22.558-5.068 3.999-13.909 3.118-17.525-2.405-1.652-2.451-2.842-5.745-2.647-8.651-1.108-1.372-1.254-2.731-.611-4.373 1.496-3.823 4.685-7.983 9.141-6.428"/><path d="M123.809 255.257c-1.108-1.372-1.254-2.731-.611-4.373 1.496-3.823 4.685-7.983 9.141-6.428.32.806.507 1.059.339 1.911-1.083 1.769-2.681 2.631-3.926 4.126-2.208 2.649-.69 4.5-4.943 4.764"/><path fill="#fcc906" d="M248.47 304.005c2.666-.068 5.318-.011 7.983.027 2.227 8.858 5.619 22.257 7.269 31.446.21 1.166-3.138 9.972-3.734 11.649q-3.07 8.85-6.254 17.66c-.353 1.1-.595 2.364-1.522 2.97l-.431-.276c-1.397-2.358-3.696-10.344-4.834-13.559-1.416-4-5.275-13.259-5.762-16.933-.466-3.528 6.029-28.046 7.285-32.984M356.047 215.881c10.967-2.933 22.1-5.054 33.094-7.881 3.515-.904 7.217-1.639 10.773-2.411q-.51 2.793-.954 5.596c.022 9.166.421 12.166 2.314 20.915-1.971-.09-4.434-.085-6.347-.33-11.382-1.458-23.26-1.865-34.574-3.505-1.337-.132-2.653-.327-3.983-.516-.303-4.275-.433-7.602-.323-11.868"/><path fill="#fff" d="M356.047 215.881c10.967-2.933 22.1-5.054 33.094-7.881 3.515-.904 7.217-1.639 10.773-2.411q-.51 2.793-.954 5.596c-5.223.509-10.317 1.73-15.505 2.576-6.772 1.106-13.654 2.054-20.366 3.5-.605.131-2.813.84-3.084 1.244-1.449 2.162.231 7.567.349 9.76-1.337-.132-2.654-.327-3.983-.516-.303-4.275-.433-7.602-.324-11.868M90.699 231.724c.085.589-1.666 6.627-1.95 8.018-3.03 14.852-1.873 37.736 6.527 50.696 5.704 8.8 14.388 12.789 24.252 14.844q-.038 6.6.009 13.2l-4.584-1.173c-34.329-11.124-36.785-42.126-31.486-72.775 1.171-6.772 1.412-8.951 7.231-12.81"/><path fill="#fcc906" d="M125.039 282.297c8.683 2.931 14.307 3.117 22.848-.02l-.24 4.692-3.221.666c1.378.036 1.773.041 3.119-.205-.03 2.563.013 5.813-.126 8.318a94 94 0 0 0-3.031 5.276c-.517-4.735-3.522-8.546-8.657-7.889a7.64 7.64 0 0 0-5.269 3.204c-1.45 2.108-1.396 3.561-1.31 5.986 2.004 6.536 8.078 7.591 13.138 3.494-3.322 10.465-4.673 15.043-6.448 25.958-.113.983-.101 1.536-.526 2.408-1.594.243-8.203-.199-8.674-1.048-1.314-2.373-1.129-15.532-1.183-17.921a1716 1716 0 0 1-.42-32.92"/><path fill="#fff" d="M125.039 282.297c8.683 2.931 14.307 3.117 22.848-.02l-.24 4.692-3.221.666c-1.407.215-5.41.871-6.636.821-3.423-.139-6.069-.546-9.588-.442-.207 5.371-.027 9.17.252 14.567-.237 6.233.288 12.704.506 18.945.248 7.07-.913 9.548 6.881 10.251-.112.983-.1 1.536-.525 2.408-1.594.243-8.203-.199-8.674-1.048-1.314-2.373-1.129-15.532-1.183-17.921a1716 1716 0 0 1-.42-32.92M228.756 251.12c16.127 9.639 30.833 8.789 47.009.06.063 2.224.007 4.61-.004 6.846-1.372.765-2.797 1.645-4.152 2.452-4.93 3.086-14.466 9.303-19.4 11.353-7.12-3.518-16.427-9.509-23.428-13.835zM222.643 261.472c-.034-.004 21.097 12.685 23.405 13.986l-11.662 9.594a239 239 0 0 0-7.332 6.244c-4.186-4.964-8.167-19.511-10.167-26.263zM282.191 261.317a363 363 0 0 1 5.705 3.732c-2.268 7.15-6.154 20.459-10.363 26.07-2.029-1.869-5.057-4.168-7.279-5.94l-11.655-9.711c7.379-4.644 16.042-9.605 23.592-14.151M373.908 235.939c4.58.13 11.238 1.093 16.035 1.561l.42 3.41c.488 3.263.514 7.005.59 10.325-3.16.144-5.608.548-8.636.775-2.185.814-3.469 1.268-5.332 2.779-2.898 3.596-3.141 7.54-.607 11.486 2.311 2.379 3.964 3.237 7.11 4.248-2.479 1.148-5.002 2.703-7.129 3.673-1.381 1.557-2.404 2.102-3.923 4.105.507-4.527.555-10.224.716-14.843z"/><path fill="#fcc906" d="M377.321 245.151q-.002-.905.026-1.808c.069-1.888 1.326-3.388 3.13-3.27 3.269.214 6.586.684 9.887.837.487 3.263.513 7.005.589 10.325-3.16.144-5.608.548-8.636.775-2.185.814-3.469 1.268-5.332 2.779.317-2.805.286-6.699.336-9.638"/><path fill="#e8c031" d="M377.321 245.151c.527 1.623.311 5.046.247 6.847 1.506.002 3.266-.042 4.749.012-2.185.814-3.469 1.268-5.332 2.779.317-2.805.286-6.699.336-9.638"/><path fill="#fcc906" d="M376.379 266.275c2.31 2.379 3.963 3.237 7.11 4.248-2.48 1.148-5.003 2.703-7.13 3.673-.648-2.14-.425-5.728.02-7.921"/><path fill="#fff" d="M267.334 290.4c2.955 2.65 6.272 5.746 9.5 7.997-2.17 7.349-5.52 16.122-8.046 23.524-.276.733-.955 2.065-1.31 2.822-.834-4.567-5.918-21.179-5.12-24.311.786-3.088 3.481-7.078 4.976-10.033M237.188 290.774c1.213 1.255 4.901 8.671 5.656 10.457l-5.83 23.575c-.346-.726-.653-1.642-.935-2.413-2.873-7.328-5.676-16.381-8.272-23.979 3.383-2.304 6.128-5.161 9.381-7.64"/><path fill="#fcc906" d="M405.701 209.295c.371-2.146 1.261-8.07 4.05-7.803 2.026 1.241 2.926 4.349 3.752 6.545 1.272 4.971 3.524 24.975-2.259 27.102-.678-.064-1.41-.17-1.834-.83-4.077-6.367-4.679-17.233-3.822-24.147q.054-.434.113-.868"/><path fill="#fff" d="M405.701 209.295c.371-2.146 1.261-8.07 4.05-7.803 2.026 1.241 2.926 4.349 3.752 6.545-1.823.943-5.73 1.213-7.802 1.257"/><path fill="#fcc906" d="M252.072 278.663c1.509.14 8.663 6.715 10.208 8.113-1.64 3.554-3.87 7.803-5.803 11.2l-3.897.053-4.416-.066c-2.021-3.776-4.054-7.468-6.016-11.28a288 288 0 0 1 9.924-8.02M372.097 296.296c1.148 2.586 1.529 3.045 3.616 4.95.935.427.89.234 1.374.958.046 2.587-.936 3.083-.453 5.974 3.048 5.846 9.025 5.284 14.615 4.769-.023 1.482.003 3.534-.597 4.889-.2.673-.447 1.331-.935 1.851-2.495 2.658-8.265 2.296-11.686 2.278-2.052-.011-4.177-.272-5.611-1.904-1.23-1.4-.388-20.571-.323-23.765"/><defs><linearGradient id="a" x1="778.918" x2="744.419" y1="618.651" y2="618.801" gradientUnits="userSpaceOnUse"><stop offset="0" stop-color="#eae5bf"/><stop offset="1" stop-color="#fff"/></linearGradient></defs><path fill="url(#a)" d="M744.194 592.592c2.295 5.171 3.058 6.089 7.232 9.9 1.871.854 1.781.468 2.749 1.916.09 5.175-1.873 6.166-.907 11.948l-2.301 1.615c-.701 8.369-3.264 23.491 9.384 23.102 4.94-.151 10.328-.719 14.933-2.627 1.94-.815 4.141-2.386 6.02-2.774-.399 1.347-.894 2.662-1.87 3.702-4.991 5.316-16.531 4.593-23.373 4.556-4.102-.022-8.353-.545-11.221-3.809-2.459-2.799-.776-41.141-.646-47.529" transform="scale(.5)"/><path fill="#e8c031" d="M375.713 301.246c.935.427.89.234 1.374.958.046 2.587-.936 3.083-.453 5.974l-1.15.808c.005-2.584-.044-5.172.229-7.74"/><path fill="#fff" d="M182.518 231.873c1.39.665 2.941 1.519 3.969 2.678 4.063 4.582 5.392 26.523 5.132 32.845l-2.179.741a389 389 0 0 1-4.818 1.731c2.069-14.762 2.367-23.349-2.105-37.995M120.594 212.097c.915-.138 3.546-.136 4.575-.158l-.025 4.767c-9.214.08-21.916 3.06-30.369 6.635l-4.17 2.1c.74-1.281 1.605-2.732 2.505-3.885 5.127-6.568 19.35-8.61 27.484-9.459M147.737 211.746c8.29.448 15.309 1.367 23.239 4.15 6.763 2.373 8.061 3.275 11.708 9.473-2.442-.978-5.18-2.645-7.98-3.714-9.47-3.618-17.15-4.687-27.02-5.09z"/><path fill="#fcc906" d="M131.312 211.038c1.378-2.648 4.408-1.839 7.054-1.907 1.08-.028 2.474.202 2.952 1.295 1.782 3.517 1.318 7.645-2.31 9.756-3.683.89-5.831.514-7.935-2.73-.202-2.492-.196-3.979.239-6.414"/><path fill="#fff" d="M131.312 211.038c1.01-.509 1.057-.569 2.144-.474l.627.39-.053.565c-3.475 4.103-.643 8.953 4.327 7.365.684.588.398.223.651 1.298-3.683.89-5.831.514-7.935-2.73-.202-2.492-.196-3.979.239-6.414"/><path fill="#dbd8c3" d="M131.312 211.038c1.378-2.648 4.408-1.839 7.054-1.907 1.08-.028 2.474.202 2.952 1.295a70 70 0 0 1-.329 2.375c-1.845-2.112-4.467-2.365-6.96-1.282l.054-.565-.627-.39c-1.087-.094-1.134-.035-2.144.474"/><path fill="#f6e1af" d="M140.99 212.8q.184-1.183.328-2.374c1.782 3.517 1.318 7.645-2.31 9.756-.253-1.075.032-.71-.65-1.298 2.663-2.735 2.967-1.493 2.631-6.083"/><path fill="#fff" d="M347.637 227.226c-1.258-.546-1.579-.785-2.15-2.151a6.73 6.73 0 0 1 .053-5.236c.596-1.356 2.159-3.056 3.745-2.192.644 1.03.451.672.452 2.059.02 2.676.287 4.892.578 7.538-.55-.012-2.229-.09-2.678-.018"/><path fill="#e8c031" d="M347.637 227.226c.421-2.847-1.082-6.121 2.1-7.52.02 2.676.287 4.892.578 7.538-.55-.012-2.229-.09-2.678-.018M135.929 297.395a3.366 3.366 0 1 1 1.462 6.572 3.366 3.366 0 0 1-1.462-6.572"/><path fill="#fff" d="M372.377 285.403c.479.278 2.423 2.397 2.95 2.95l-1.599 1.868-.776 1.084-.29-.01c-.511-1.108-.299-4.534-.285-5.892M333.027 398.107c.949.634 1.757 1.708 2.188 2.761-.746.154-1.164.307-1.911.144-.538-.87-.302-1.708-.277-2.906"/><path d="M352.228 101.375q8.512-.069 17.025-.047c2.166.013 11.127-.322 12.377 1.337.847 3.711.592 10.255.594 14.316l-.018 21.684-.089 33.74c.006 3.58.443 22.118-.591 24.07-1.685.59-2.946.584-4.702.65-12.069.451-23.961.399-36.033.036-4.98-.207-10.07.087-14.998-.724-1.034-.17-2.513-.924-2.468-2.109 1.584-1.699 10.093-1.558 12.588-1.654a1356 1356 0 0 1 19.964-.656c2.743-.048 20.15-.066 20.897-.519l.022-.936c-.325-15.105-.199-30.911-.212-46.06-.01-12.102-.226-25.674.156-37.669-5.26-.124-10.841.087-16.15.064-14.843-.064-29.786.236-44.62-.099.041 4.402.293 21.136-1.81 23.987-.744.291-.367.28-1.169-.055-2.111-2.332-3.41-26.662-1.933-27.772 2.122-1.593 14.28-1.189 17.957-1.225z"/><path d="M343.727 116.312c8.019-.931 12.235 2.938 16.712 8.971a80 80 0 0 1-1.08 1.546c-2.963 4.124-5.917 6.586-11.046 7.41-8.191.611-12.892-2.272-17.352-9.09 3.554-4.533 7.087-7.704 12.766-8.838"/><path fill="#fff" d="m341.136 119.532.031.287c-3.59 5.178-3.3 7.064 1.123 11.766-1.632-.632-2.283-.856-3.77-1.791-1.511-1.11-3.407-2.943-4.835-4.244 2.399-2.38 4.357-4.638 7.45-6.018M350.444 119.476c2.561.686 5.632 3.93 7.6 5.8-1.5 1.654-2.506 2.558-4.212 3.984-1.474 1.073-2.367 1.404-4.036 2.128 4.134-4.189 4.562-7.341.647-11.912M345.009 122.627a2.742 2.742 0 1 1 1.94 5.13 2.742 2.742 0 0 1-1.94-5.13"/><path d="M350.283 138.175c2.59-.066 10.373-.843 10.047 4.333-.147 2.334-4.746 2.093-5.857 2.893-.098.73-.16.383.272 1.056.81.21.751.201 1.361.784.3.803.316.425.021 1.171-1.034.9-5.197 1.321-6.072.361.017-3.246.669-1.133 1.649-2.379.165-1.726.37-4.238-.615-5.686-.995-1.463-.805-.537-.806-2.534"/><path fill="#fff" d="M354.202 140.466c1.08-.028 1.583-.141 2.535.285.671.642.62.764.854 1.655-.916.256-2.156.624-2.98.188-.543-.873-.357-.931-.41-2.128"/><path d="M332.16 138.24q4.916-.112 9.832-.056.029.831.034 1.662c0 .977-.02 1.297-.67 1.938-1.291.079-4.435-3.04-5.212-.459.72 1.375 2.977 1.618 2.563 3.03-.814.681-1.02.64-2.116.829-.384.126-.178.01-.519.48l.142.545c1.322.702 2.471 1.221 2.054 2.915-1.744.286-4.493.242-6.253.036l-.221-.381c.001-1.109-.217-1.406.333-2.03.644-.035 1.077.03 1.545-.384.248-1.551.116-3.894-.116-5.453l-.949-.407c-.678-.865-.434-.862-.447-2.266M344.235 153.911a3.816 3.816 0 1 1 2.92 7.051 3.816 3.816 0 0 1-2.92-7.051"/><path fill="#fff" d="M344.997 155.459a2.053 2.053 0 1 1 1.17 3.935 2.053 2.053 0 0 1-1.17-3.936"/><path d="M355.274 153.518c1.65-.04 6.332-.559 7.033.86-.599 1.683-3.873 3.439-3.692 5.083 1.95.509 1.58-.796 2.993-1.068.457.727.38 1.984.418 2.898-1.516.013-6.25.457-6.659-1.075.74-1.622 3.001-3.729 4.088-5.536-1.38.525-2.703 1.513-3.881 1.261-.533-.991-.322-1.112-.3-2.423M336.215 153.721l-.224 3.478c-.563-.668-.85-1.14-1.65-1.483-.84.165-.478-.037-1.05.744-.402 2.012-.03 2.908 1.627 3.801-.004.619.065.32-.22.893-1.236.201-2.138.401-3.398.358-1.796-1.073 1.31-2.883.142-6.085-1.347-.22-1.514.957-2.696.77-.365-.85-.197-1.578-.121-2.519 2.497.056 5.084.032 7.59.043M364.112 170.257c-1.002.042-1.696.181-2.438-.293.251-1.528-.199-2.745-.18-4.297 1.973-1.1 6.915 1.11 3.607 4.129l-.129.424c-.395.044-.472.087-.86.036"/><path fill="#fff" d="M364.112 170.257c-.397-1.643-.812-.491-1.034-1.969.346-.974.318-1.456 1.409-1.377.67 1.077-.194 1.715.614 2.885l-.129.424c-.395.044-.472.087-.86.036"/><path d="M338.924 165.626c.418.53.399.488.571 1.141-.642.6-1.356-.255-2.413.289.192.515.258.651.54 1.105l.245.39c-.579.048-.289-.005-.867.168.022.632-.045.337.29.87.722-.19 1.041-.367 1.7-.685.674.262.358.068.794.985-1.022.849-3.255.724-4.553.573-.691-.08.447-2.224.359-2.717-.065-.364-.361-1.02-.537-1.382l-.225-.459c.625-.334 3.215-.265 4.096-.278M352.705 165.494a62 62 0 0 1 5.494.12c-.594.597-2.82 2.663-2.925 3.305.718-.025 1.363-.143 1.973.182l.259.87c-.666.285-3.973.106-5.011.11.536-.73 1.784-2.28 2.024-3.048l-1.319-.173c-.579-.495-.393-.34-.495-1.366M326.05 165.585c1.27-.079 3.44-.227 4.325.832.106.983.21.563-.135 1.346-1.476.17.003-.228-1.603-.759l-.357.275.316.469-.323.249c-.401 1.492.5.815-.011 2.16l-.769.181c-1.515-.624-.416-2.463-1.005-3.6-.286-.55-.264-.559-.438-1.153M345.473 165.515c1.395-.029 1.933-.274 2.876.799-.38.757-2.58.36-3.596 1.357-.025 1.349.954 1.627 2.145 1.674.35-.093.765-.172 1.118-.248l.218.25c-1.871 2.508-7.26-.178-2.761-3.833M345.415 174.862a1.713 1.713 0 1 1 .805 3.33 1.713 1.713 0 0 1-.806-3.33M352.552 174.797c1.137-.07 2.047-.26 2.966.306-.036.86-.17.746-.799 1.593l.172.243.964-.143c-.13.32-.31.694-.456 1.013-1.157.268-1.52.574-2.171-.457.072-1.266-.012-1.477-.677-2.555M328.014 174.706c1.245.014 2 .118 2.722 1.174-.042 1.001-.048.697-.954 1.648.075.398.079.183-.067.64-1.038.173-.569.247-1.468-.122.02-1.422-.018-1.933-.233-3.34M335.808 174.747c1.456.07 1.466-.188 2.296.559l-.308-.427.379.269c-.41.564-.474.587-.688 1.237l.349.48c.827.035.553-.072 1.24.274l.108.8c-.69.349-1.956.49-2.657.121-.552-1.02-.009-1.732-.719-3.314M340.171 182.497c.559-.017.762 0 1.317.04.873.557.598.189.947 1.068-.075 1.02-.271 1.136-.933 1.99-1.767.098-2.288-1.547-1.331-3.098M360.92 174.775c1.231.043 1.933-.125 2.727.626 0 .811.009.593-.699 1.459l-.14.169c.42.096.582-.109 1.154-.357-.07.648-.06.602-.437 1.136-1.037.33-1.33.534-1.98-.407.037-1.244-.076-1.508-.625-2.626M346.895 182.6a1.43 1.43 0 1 1 1.329 2.533 1.43 1.43 0 0 1-1.33-2.534"/><path fill="#383639" d="M359.244 182.453c1.197.038 1.165-.17 1.875.43.196.928.164 1.585.177 2.539-.563-.101-.87-.193-1.421-.358-.684-.978-.51-1.312-.631-2.612"/><path d="M332.92 182.076c1.074.149 2.087.358 2.186 1.522l-.918.954.059.33-.338.355-.676-.006-.175-.338c.08-1.16.087-1.679-.137-2.817M353.286 182.463c1.162.091 1.142-.114 1.798.503.038.862-.001 1.52-.046 2.385-.582-.154-.925-.286-1.489-.501-.462-.625-.294-1.558-.263-2.387"/></svg>