<svg xmlns="http://www.w3.org/2000/svg" width="1024" height="1024" viewBox="0 0 1024 1024"><path d="M381.038 448.538c-5.948-6.308-11.242-10.66-16.686-17.904-9.586-12.764-8.334-14.922-20.786-27.04-27.624-26.882-41.688-70.062-42.98-107.786-3.026-88.316 51.344-166.39 144.398-167.993 46.426-.8 98.32 18.81 131.708 51.29 55.132 53.329 65.91 174.099 2.15 226.063-14.696 11.978-8.992 7.208-20.628 22.57-5.584 7.45-12.122 14.06-18.512 20.8 25.746 17.874 12.904 18.326 46.234 25.144 55.148 11.282 100.166 33.1 133.26 80.034 7.806 11.07 12.432 23.3 18.998 33.54l.332.506c42.932-19.352 92.528 3.588 93.824 52.674.296 11.192-2.62 19.564-6.346 29.982 23.322.818 24.656 24.962-8.834 16.76-1.646 5.692-2.466 11.754-3.39 17.614 7.906 4.914 16.428 17.476 20.986 25.414 24.996 43.55-2.236 100.38-46.444 116.458-11.52 48.828-8.91 55.752-61.278 43.74-42.024-9.642-53.28-2.658-46.026-52.126-136.416 26.778-285.494 30.418-420.634-4.09-15.308-3.91-44.19-10.208-56.392-19.04-30.323-21.95-22.145-59.792-22.898-91.966-.67-28.664-1.97-62.232-.143-90.836 5.628-88.116 58.681-139.576 143.791-157.308 11.956-2.49 24.088-4.086 36.154-5.928 6.172-6.184 13.824-15.234 20.142-20.572m-66.826 115.058 38.702 20.838c3.728 2.022 13.59 7.082 16.542 9.232 8.32 13.968-10.728 21.946-20.954 29.796-7.74 5.55-16.346 12.702-24.248 17.706l.384.55c5.704 8.296 10.516 19.118 16.248 27.568 20.662 30.374 44.17 59.974 71.558 84.558 3.716 4.26 21.75 14.678 19.588 21.444-4.388 13.714-13.008 5.988-20.024.398-42.198-33.624-76.704-76.636-102.656-123.82-12.976-23.594 16.022-35.838 34.41-49.488-10.484-6.818-22.356-11.954-33.43-18.164-26.422-14.818-19.64-15.84-6.786-39.644l23.416-43.584c-8.5 1.6-14.48 3.498-22.592 6.236-86.476 28.44-98.856 88.064-98.014 166.778l.456 44.508c.128 16.404-2.828 46.926 2.034 62.018 6.488 20.134 25.892 21.062 43.24 25.83 58.75 15.36 135.478 28.044 197.224 27.532.432-16.19-.164-32.824.032-49.152.316-26.306 1.284-28.616-7.292-53.046l-61.014-171.724c-3.686-10.342-20.368-64.63-24.876-68.67-9.54 8.73-33.42 58.674-41.948 72.3M766.87 858.498c-16.05.17-33.264 6.886-52.402 5.882-10.804-.566-2.184-29.3-1.02-36.182l17.422-107.284c1.618-10.412 3.63-25.678 5.944-35.61 21.588 3.328 37.258 5.928 58.194 10.904l.484.112c.814-4.356 1.78-9.076 2.236-13.448-22.756-3.494-48.388-7.516-70.492-12.454-7.33 36.236-12.168 74.57-18.126 111.132l-8.37 52.026c-3.468 21.452-11.78 30.472 9.766 34.654 15.618 3.03 31.984 4.83 47.426 8.542 1.95-.762 3.35-1.22 5.124-2.352 1.782-5.512 2.104-10.492 3.814-15.922m-392.362-374.67c14.582 39.066 27.222 80.062 42.23 118.55.904-3.442 1.822-5.448 3.232-8.712.092-10.464 4.522-26.248 9.034-35.732-14.04-10.554-13.348-26.348-9.034-41.376-12.16-8.01-30.332-33.026-38.932-38.078-2.974 1.932-4.276 2.566-6.53 5.348m179.008-299.493c-29.414-24.896-71.298-38.884-109.308-37.833-112.234 3.103-155.638 135.916-104.016 222.866-1.64-13.026-8.864-76.294-2.922-84.402 1.686-2.298 4.49-3.058 6.492-4.934-6.648-28.102 25.092-74.124 45.9-91.049 43.654-35.51 110.656-30.52 158.89-6.34 1.768.887 2.96 1.647 4.964 1.692M393.7 466.514c14.018 10.334 24.376 24.982 37.894 35.706 10.938-4.626 45.472-7.2 54.32 0 8.366-6.384 21.034-18.82 28.358-23.74 4.862-4.056 9.646-8.084 14.652-11.966l-5.528-3.91c-35.678 16.946-68.05 21.282-106.032 8.554-6.936-2.324-13.588-6.794-20.54-8.554zm63.26 50.044c-29.41-.666-25.7 25.888-7.65 32.472 2.822-10.824 4.078-21.668 7.65-32.472m43.894 0c2.66 15.044 4.18 22.968-5.084 36.232l-3.664 5.144c1.896 12.06 4.788 23.79 6.552 35.732.636 3.206 1.29 5.568 2.196 8.712 3.826-7.818 6.678-19.21 9.692-27.736 4.874-13.8 33.134-87.786 32.914-96.162-11.952 12.642-31.8 25.792-42.606 38.078m-57.158 50.85c-4.342 20.794-8.972 45.972-14.692 66.162 2.28 6.076 5.266 14.288 8.154 20.074 3.804-6.542 16.668-73.304 19.802-86.236-4.364-.02-8.916-.108-13.264 0m323.174 31.804c-29.034 2.096-42.56 24.768-41.28 52.058 16.342 2.534 36.266 7.668 52.014 9.104 10.276 2.072 19.002 3.08 28.84 6.822 5.552-14.97 9.686-26.39 2.9-42.144-6.764-15.706-25.438-27.218-42.474-25.84M521.888 261.64c-8.808 1.884-12.372 5.856-18.788 11.77-41.8 38.526-89.946 53.548-143.918 35.53-1.746 51.184 5.276 95.126 48.556 128.278 48.454 29.404 104.702 19.586 134.128-30.816 15.284-24.474 15.584-53.076 17.418-80.878.378-5.714 1.962-18.572.598-23.53-4.406-15.996-17.69-42.46-37.994-40.354m163.798 547.63c-15.864-28.406-10.276-77.88 15.82-97.584 2.368-15.066 4.404-29.422 7.106-44.49-32.862-4.56-20.492-24.28-1.802-19.082-.212-18.594 1.464-24.61 10.574-41.274-22.324-56.664-67.668-90.972-125.428-105.854 7.76 15.282 34.204 54.268 33.522 69.094-3.752 6.94-13.656 11.246-20.508 15.332l-28.042 16.966c49.076 36.214 43.182 43.754 7.972 92.766-23.558 32.796-53.06 67.898-88.4 88.116-5.132 2.936-13.32-8.75-5.868-14.034 30.54-21.656 90.348-88.368 102.99-126.29-7.112-10.112-21.476-19.496-31.064-27.342-5.434-4.316-21.806-14.762-8.872-22.372 16.554-9.74 33.45-20.384 50.24-29.626-4.096-8.522-38.4-72.17-41.824-74.18-2.408 2.384-5.092 12.824-6.378 16.526L484.92 707.686c-5.206 14.452-17.386 41.67-17.458 56.316l.014 42.444c-.022 9.266-.38 18.162.024 27.442 64.05.184 124.31-5.066 187.206-16.92 5.032-.948 30.25-3.624 30.98-7.698"/><path fill="#feca05" d="M813.78 704.792c7.906 4.914 16.428 17.476 20.986 25.414 24.996 43.55-2.236 100.38-46.444 116.458 4.938-44.708 17.962-96.208 25.458-141.872M343.762 280.032c-6.648-28.102 25.092-74.124 45.9-91.049 43.654-35.51 110.656-30.52 158.89-6.34 1.768.887 2.96 1.647 4.964 1.692 52.46 41.711 67.142 141.023 25.402 192.913l-.366.446c3.474-16.1 7.96-57.04 4.446-72.244-6.146-26.604-22.314-56.532-50.754-63.872-25.206-6.506-38.386 13.516-56.344 26.406-34.962 24.872-79.386 38.308-119.814 17.51-2.854-1.466-9.278-4.576-12.324-5.462M736.814 685.304c21.588 3.328 37.258 5.928 58.194 10.904l.484.112c-1.49 11.028-3.898 22.652-5.808 33.678l-15.966 88.57c-1.218 6.718-7.12 34.58-6.848 39.93-16.05.17-33.264 6.886-52.402 5.882-10.804-.566-2.184-29.3-1.02-36.182l17.422-107.284c1.618-10.412 3.63-25.678 5.944-35.61M456.96 567.408h17.362c1.688 10.512 14.396 69.25 13.004 75.862-3.984 18.894-20.042 55.334-26.992 75.354-7.006-18.318-18.746-46.522-23.176-64.98 3.804-6.542 16.668-73.304 19.802-86.236M685.686 809.27c-15.864-28.406-10.276-77.88 15.82-97.584-.328 5.532-2.09 14.428-3.04 20.16l-9.732 59.46c-.89 5.432-1.858 12.698-3.048 17.964M456.96 516.558c12.998-.118 25.25-2.272 26.202 15.552 1.042 19.486-21.568 16.986-33.852 16.92 2.822-10.824 4.078-21.668 7.65-32.472"/></svg>